<svg width="199" height="84" viewBox="0 0 199 84" fill="none" xmlns="http://www.w3.org/2000/svg">
<path d="M33.0662 1.75157C19.5567 4.9492 7.89933 14.4422 2.66985 26.5332C-0.816468 34.6272 -0.925416 48.9166 2.56091 56.8107C10.0783 73.8981 30.2336 85.4895 48.9726 83.391C58.1241 82.2919 58.342 81.8922 57.3615 63.8056C56.4899 46.9181 55.9452 45.4192 48.5368 36.3259C43.6341 30.3304 39.4941 23.1357 40.0389 21.6368C40.2568 21.0373 41.782 22.5362 43.3073 24.9344C44.9415 27.4325 48.2099 31.6294 50.7157 34.4273C56.9257 41.1224 58.451 44.1202 59.9763 52.2142L61.2836 59.3089L62.4821 55.3119C64.2252 49.716 64.1163 42.4214 62.1552 38.0247C61.1747 36.0262 57.0347 31.1298 53.0036 27.3326C43.852 18.739 41.9999 16.2408 41.9999 12.3437L41.891 9.34594L38.8404 12.4436C34.3736 16.9403 31.1052 25.7338 31.1052 32.9285C31.1052 42.8211 34.4825 48.0173 46.031 55.9114C52.132 60.1083 55.0736 64.1053 55.0736 68.3022C55.0736 71.4999 54.4199 71.4999 51.0426 67.8026C48.2099 64.7049 44.7236 62.7064 39.821 61.3074C37.2062 60.6079 37.2062 60.6079 39.0583 62.5065C41.6731 65.3045 41.3462 66.1039 37.9689 65.4044C35.0273 64.7049 32.1946 62.3067 32.1946 60.6079C32.1946 58.9092 40.8015 59.9085 45.5952 62.2067C51.5873 64.9047 52.132 64.2053 47.0115 60.1083C44.0699 57.6102 41.9999 57.0106 35.8989 56.411C31.8678 56.0113 27.7278 55.2119 26.8562 54.5125C24.1325 52.414 26.3115 60.508 29.5799 64.505C33.1752 68.8019 36.2257 69.901 44.3968 69.6013C51.3694 69.4014 53.3305 70.5006 54.7468 75.6967C55.6184 78.8944 53.6573 79.7937 45.5952 79.7937C31.3231 79.7937 18.3583 73.4984 10.5141 62.7064C5.28459 55.6116 3.43249 48.7167 3.97722 38.7242C4.73986 25.3341 13.6736 13.4429 27.292 7.34743C33.1752 4.74935 34.9183 4.44957 44.7236 4.34965C54.202 4.34965 56.381 4.74935 61.6105 6.94772C70.3263 10.7449 77.2989 16.9403 81.221 24.2349C86.4505 33.9277 87.1042 41.622 83.9447 54.7123C83.1821 57.6102 83.291 58.0099 85.1431 57.6102C88.1937 57.1105 90.1547 49.0165 89.61 39.1239C89.1742 32.6287 88.4116 29.531 85.7968 24.3348C79.6958 12.4436 66.84 3.25046 53.0036 0.852241C45.1594 -0.446796 41.6731 -0.34687 33.0662 1.75157ZM46.2489 39.0239C51.1515 45.0195 52.8947 48.6168 52.8947 52.9136C52.8947 56.511 51.6962 56.1113 43.961 49.9159C37.4241 44.6198 35.4631 40.9225 35.4631 33.7279C35.4631 24.9344 36.4436 23.8352 39.3852 29.2312C40.8015 31.7293 43.852 36.226 46.2489 39.0239Z" fill="black"/>
<path d="M113.251 11.5443C111.181 11.944 110.855 12.8433 110.201 19.5383C109.111 32.2289 109.111 32.8285 112.271 32.8285C114.668 32.8285 114.995 32.4288 114.995 29.431C114.995 26.5332 115.43 26.0335 118.263 25.5339C122.839 24.6346 125.889 21.4369 125.889 17.5398C125.889 11.944 121.749 9.94546 113.251 11.5443ZM120.224 18.0395C120.006 19.5383 119.026 20.4377 117.283 20.6375C115.213 20.9373 114.886 20.6375 115.43 19.3385C115.757 18.4392 116.084 17.24 116.084 16.7404C116.084 16.2408 117.065 15.8411 118.372 15.8411C120.006 15.8411 120.551 16.3407 120.224 18.0395Z" fill="black"/>
<path d="M127.85 21.437C127.633 27.2327 127.633 32.0291 127.741 32.129C127.85 32.229 131.01 32.129 134.823 31.8293C141.36 31.3296 141.687 31.2297 142.014 28.5317C142.34 25.9336 142.123 25.8337 137.765 25.8337H133.189L133.843 18.3393L134.605 10.8448H131.446H128.177L127.85 21.437Z" fill="black"/>
<path d="M148.769 15.3415C146.699 19.8382 143.321 29.4311 143.321 31.0299C143.321 31.4296 144.847 31.8293 146.59 31.8293C148.66 31.8293 149.858 31.3297 149.858 30.4303C149.858 29.1313 152.037 27.8323 154.216 27.8323C154.761 27.8323 155.306 28.8315 155.523 30.0306C155.741 31.8293 156.395 32.229 158.574 32.0292C160.099 31.8293 161.407 31.5295 161.516 31.4296C162.169 30.83 158.247 13.2431 157.158 12.044C156.613 11.4444 154.979 10.8449 153.453 10.8449C151.383 10.8449 150.403 11.7442 148.769 15.3415ZM154.216 21.3371C154.216 23.1358 153.671 23.6354 152.037 23.5355C149.422 23.3356 149.531 23.6354 151.057 20.4378C152.582 17.44 154.216 17.9396 154.216 21.3371Z" fill="black"/>
<path d="M164.675 12.0439C164.348 12.7434 164.021 17.4399 163.803 22.5361C163.367 31.4295 163.476 31.7293 165.873 32.129C167.181 32.3289 168.597 32.3289 168.924 32.0291C169.904 31.1298 169.468 23.2356 168.379 22.2364C167.725 21.6368 167.725 20.7375 168.379 19.8381C169.142 18.739 169.468 18.739 169.468 19.6383C169.468 20.3378 169.904 20.7375 170.449 20.3378C170.994 20.038 171.865 20.3378 172.301 20.9373C172.737 21.7367 172.628 21.8367 171.865 21.437C170.122 20.4377 170.231 21.6368 172.301 27.1327C173.826 31.1298 174.48 31.8292 176.877 31.8292H179.819L180.145 21.337L180.363 10.8448H177.749C175.243 10.8448 175.025 11.3444 174.698 15.5413L174.371 20.3378L172.737 15.8411C171.43 12.1438 170.558 11.2445 168.052 11.0447C166.309 10.8448 164.893 11.2445 164.675 12.0439Z" fill="black"/>
<path d="M182.215 11.5443C181.779 11.844 181.453 13.243 181.453 14.642C181.453 16.7404 181.779 16.9403 184.176 16.4406C186.791 15.8411 186.9 15.941 187.009 21.5369C187.118 24.7345 187.118 28.5317 187.118 29.9306C186.9 32.2289 187.336 32.5287 189.624 32.0291C192.456 31.5294 192.347 32.2289 192.892 18.3392C193.001 15.941 193.437 15.3414 195.725 15.3414C197.577 15.3414 198.448 14.7419 198.666 13.0431C198.993 10.9447 198.666 10.8448 190.931 10.8448C186.573 10.8448 182.542 11.1446 182.215 11.5443Z" fill="black"/>
<path d="M121.096 55.0121C120.878 55.7116 120.333 60.7079 120.006 66.1039L119.353 75.8966L122.403 75.5968C125.018 75.2971 125.345 74.7974 125.671 71.0002C125.889 68.602 125.563 66.1039 124.909 65.4044C124.255 64.7049 124.255 63.7056 124.8 62.8063C125.563 61.7071 125.889 61.6072 125.889 62.6065C125.889 63.3059 126.325 63.7056 126.87 63.4059C127.415 63.0062 127.633 63.8056 127.197 65.0047C126.761 66.6035 126.979 66.9033 128.068 66.3037C129.049 65.7042 129.267 65.904 128.613 66.8033C128.177 67.4029 128.395 69.8011 129.158 71.8996C130.247 74.9973 131.119 75.7967 133.189 75.7967C135.586 75.7967 135.695 75.397 135.695 69.4014C135.695 65.904 136.022 61.0076 136.348 58.4096C137.111 54.0128 137.002 53.813 134.278 53.813C131.664 53.813 131.446 54.2127 131.119 58.5095L130.792 63.3059L129.049 58.8093C127.633 55.2119 126.761 54.2127 124.473 54.0128C122.73 53.813 121.314 54.2127 121.096 55.0121Z" fill="black"/>
<path d="M139.726 54.5124C139.399 55.0121 138.854 60.0084 138.418 65.7041L137.656 76.0964L140.271 75.4969C141.578 75.0972 145.064 74.7974 148.006 74.7974C152.691 74.7974 153.126 74.5975 153.126 72.2993C153.126 70.001 152.691 69.8011 148.333 69.8011C144.302 69.8011 143.43 69.4014 142.994 67.6027C142.232 65.2045 143.321 63.5058 144.084 65.5043C144.411 66.2038 146.263 66.8033 148.333 66.8033C151.601 66.8033 152.037 66.5035 152.037 64.2053C152.037 61.7071 151.819 61.6072 147.679 62.2067C143.43 62.8063 143.321 62.7064 144.411 60.8078C145.282 59.3089 146.698 58.8093 149.858 58.8093C153.78 58.8093 154.216 58.5095 154.216 56.3111C154.216 53.9129 153.998 53.813 147.243 53.813C143.321 53.813 139.944 54.1127 139.726 54.5124Z" fill="black"/>
<path d="M159.881 55.5117C156.395 58.2097 155.741 62.2067 158.356 64.605C159.555 65.7041 161.407 67.0032 162.387 67.6027C163.586 68.2023 164.13 69.2015 163.695 70.2008C163.15 71.4998 162.605 71.5998 160.208 70.6005C157.811 69.6012 157.158 69.7012 156.286 70.9003C154.761 73.1986 155.088 73.6982 159.663 74.8973C163.586 75.9965 164.457 75.8966 167.072 74.0979C171.539 71.0002 171.43 67.6027 166.854 64.1053C164.675 62.6064 162.932 60.508 162.932 59.5087C162.932 57.2104 164.675 57.3104 165.438 59.8085C166.309 62.8063 170.558 62.5065 170.558 59.4088C170.558 54.3126 164.348 52.1142 159.881 55.5117Z" fill="black"/>
<path d="M171.647 56.9106C171.647 59.7086 171.974 60.0083 174.262 59.6086C176.768 59.109 176.877 59.4088 177.313 65.7041C177.64 69.3014 177.422 72.7989 176.986 73.3984C175.679 74.8973 176.877 75.7966 180.036 75.7966C182.433 75.7966 182.542 75.4969 182.542 67.3029C182.542 59.0091 182.651 58.8092 185.157 58.8092C187.554 58.8092 189.733 55.7115 188.207 54.4125C187.881 54.1127 184.067 53.8129 179.601 53.8129H171.647V56.9106Z" fill="black"/>
</svg>
