<svg width="190" height="84" viewBox="0 0 190 84" fill="none" xmlns="http://www.w3.org/2000/svg">
<path d="M33.0662 1.75157C19.5567 4.9492 7.89933 14.4422 2.66985 26.5332C-0.816468 34.6272 -0.925416 48.9166 2.56091 56.8107C10.0783 73.8981 30.2336 85.4895 48.9726 83.391C58.1241 82.2919 58.342 81.8922 57.3615 63.8056C56.4899 46.9181 55.9452 45.4192 48.5368 36.3259C43.6341 30.3304 39.4941 23.1357 40.0389 21.6368C40.2568 21.0373 41.782 22.5362 43.3073 24.9344C44.9415 27.4325 48.2099 31.6294 50.7157 34.4273C56.9257 41.1224 58.451 44.1202 59.9763 52.2142L61.2836 59.3089L62.482 55.3119C64.2252 49.716 64.1163 42.4214 62.1552 38.0247C61.1747 36.0262 57.0347 31.1298 53.0036 27.3326C43.852 18.739 41.9999 16.2408 41.9999 12.3437L41.891 9.34594L38.8404 12.4436C34.3736 16.9403 31.1052 25.7338 31.1052 32.9285C31.1052 42.8211 34.4825 48.0173 46.031 55.9114C52.132 60.1083 55.0736 64.1053 55.0736 68.3022C55.0736 71.4999 54.4199 71.4999 51.0426 67.8026C48.2099 64.7049 44.7236 62.7064 39.821 61.3074C37.2062 60.6079 37.2062 60.6079 39.0583 62.5065C41.6731 65.3045 41.3462 66.1039 37.9689 65.4044C35.0273 64.7049 32.1946 62.3067 32.1946 60.6079C32.1946 58.9092 40.8015 59.9085 45.5952 62.2067C51.5873 64.9047 52.132 64.2053 47.0115 60.1083C44.0699 57.6102 41.9999 57.0106 35.8989 56.411C31.8678 56.0113 27.7278 55.2119 26.8562 54.5125C24.1325 52.414 26.3115 60.508 29.5799 64.505C33.1752 68.8019 36.2257 69.901 44.3968 69.6013C51.3694 69.4014 53.3305 70.5006 54.7468 75.6967C55.6184 78.8944 53.6573 79.7937 45.5952 79.7937C31.3231 79.7937 18.3583 73.4984 10.5141 62.7064C5.28459 55.6116 3.43249 48.7168 3.97722 38.7242C4.73986 25.3341 13.6736 13.4429 27.292 7.34743C33.1752 4.74935 34.9183 4.44957 44.7236 4.34965C54.202 4.34965 56.381 4.74935 61.6105 6.94772C70.3263 10.7449 77.2989 16.9403 81.221 24.2349C86.4505 33.9277 87.1042 41.622 83.9447 54.7123C83.1821 57.6102 83.291 58.0099 85.1431 57.6102C88.1937 57.1105 90.1547 49.0165 89.61 39.1239C89.1742 32.6287 88.4116 29.531 85.7968 24.3348C79.6958 12.4436 66.8399 3.25046 53.0036 0.852242C45.1594 -0.446795 41.6731 -0.346873 33.0662 1.75157ZM46.2489 39.0239C51.1515 45.0195 52.8947 48.6168 52.8947 52.9136C52.8947 56.511 51.6962 56.1113 43.961 49.9159C37.4241 44.6198 35.4631 40.9225 35.4631 33.7279C35.4631 24.9344 36.4436 23.8352 39.3852 29.2312C40.8015 31.7293 43.852 36.226 46.2489 39.0239Z" fill="#274E36"/>
<path d="M104.251 9.54427C102.181 9.94398 101.855 10.8433 101.201 17.5383C100.111 30.2289 100.111 30.8285 103.271 30.8285C105.668 30.8285 105.995 30.4288 105.995 27.431C105.995 24.5332 106.43 24.0335 109.263 23.5339C113.839 22.6346 116.889 19.4369 116.889 15.5398C116.889 9.94398 112.749 7.94546 104.251 9.54427ZM111.224 16.0395C111.006 17.5383 110.026 18.4377 108.283 18.6375C106.213 18.9373 105.886 18.6375 106.43 17.3385C106.757 16.4392 107.084 15.24 107.084 14.7404C107.084 14.2408 108.065 13.8411 109.372 13.8411C111.006 13.8411 111.551 14.3407 111.224 16.0395Z" fill="#274E36"/>
<path d="M118.85 19.437C118.633 25.2327 118.633 30.0291 118.741 30.129C118.85 30.229 122.01 30.129 125.823 29.8293C132.36 29.3296 132.687 29.2297 133.014 26.5317C133.34 23.9336 133.123 23.8337 128.765 23.8337H124.189L124.843 16.3393L125.605 8.84481H122.446H119.177L118.85 19.437Z" fill="#274E36"/>
<path d="M139.769 13.3415C137.699 17.8382 134.321 27.4311 134.321 29.0299C134.321 29.4296 135.847 29.8293 137.59 29.8293C139.66 29.8293 140.858 29.3297 140.858 28.4303C140.858 27.1313 143.037 25.8323 145.216 25.8323C145.761 25.8323 146.306 26.8315 146.523 28.0306C146.741 29.8293 147.395 30.229 149.574 30.0292C151.099 29.8293 152.407 29.5295 152.516 29.4296C153.169 28.83 149.247 11.2431 148.158 10.044C147.613 9.44442 145.979 8.84486 144.453 8.84486C142.383 8.84486 141.403 9.7442 139.769 13.3415ZM145.216 19.3371C145.216 21.1358 144.671 21.6354 143.037 21.5355C140.422 21.3356 140.531 21.6354 142.057 18.4378C143.582 15.44 145.216 15.9396 145.216 19.3371Z" fill="#274E36"/>
<path d="M155.675 10.0439C155.348 10.7434 155.021 15.4399 154.803 20.5361C154.367 29.4295 154.476 29.7293 156.873 30.129C158.181 30.3289 159.597 30.3289 159.924 30.0291C160.904 29.1298 160.468 21.2356 159.379 20.2364C158.725 19.6368 158.725 18.7375 159.379 17.8381C160.142 16.739 160.468 16.739 160.468 17.6383C160.468 18.3378 160.904 18.7375 161.449 18.3378C161.994 18.038 162.865 18.3378 163.301 18.9373C163.737 19.7367 163.628 19.8367 162.865 19.437C161.122 18.4377 161.231 19.6368 163.301 25.1327C164.826 29.1298 165.48 29.8292 167.877 29.8292H170.819L171.145 19.337L171.363 8.8448H168.749C166.243 8.8448 166.025 9.34443 165.698 13.5413L165.371 18.3378L163.737 13.8411C162.43 10.1438 161.558 9.24451 159.052 9.04465C157.309 8.8448 155.893 9.24451 155.675 10.0439Z" fill="#274E36"/>
<path d="M173.215 9.54426C172.779 9.84404 172.453 11.243 172.453 12.642C172.453 14.7404 172.779 14.9403 175.176 14.4406C177.791 13.8411 177.9 13.941 178.009 19.5369C178.118 22.7345 178.118 26.5317 178.118 27.9306C177.9 30.2289 178.336 30.5287 180.624 30.0291C183.456 29.5294 183.347 30.2289 183.892 16.3392C184.001 13.941 184.437 13.3414 186.725 13.3414C188.577 13.3414 189.448 12.7419 189.666 11.0431C189.993 8.94471 189.666 8.84478 181.931 8.84478C177.573 8.84478 173.542 9.14456 173.215 9.54426Z" fill="#274E36"/>
<path d="M112.096 53.0121C111.878 53.7116 111.333 58.7079 111.006 64.1039L110.353 73.8966L113.403 73.5968C116.018 73.2971 116.345 72.7974 116.671 69.0002C116.889 66.602 116.563 64.1039 115.909 63.4044C115.255 62.7049 115.255 61.7056 115.8 60.8063C116.563 59.7071 116.889 59.6072 116.889 60.6065C116.889 61.3059 117.325 61.7056 117.87 61.4059C118.415 61.0062 118.633 61.8056 118.197 63.0047C117.761 64.6035 117.979 64.9033 119.068 64.3037C120.049 63.7042 120.267 63.904 119.613 64.8033C119.177 65.4029 119.395 67.8011 120.158 69.8996C121.247 72.9973 122.119 73.7967 124.189 73.7967C126.586 73.7967 126.695 73.397 126.695 67.4014C126.695 63.904 127.022 59.0076 127.348 56.4096C128.111 52.0128 128.002 51.813 125.278 51.813C122.664 51.813 122.446 52.2127 122.119 56.5095L121.792 61.3059L120.049 56.8093C118.633 53.2119 117.761 52.2127 115.473 52.0128C113.73 51.813 112.314 52.2127 112.096 53.0121Z" fill="#D48F3B"/>
<path d="M130.726 52.5124C130.399 53.0121 129.854 58.0084 129.418 63.7041L128.656 74.0964L131.271 73.4969C132.578 73.0972 136.064 72.7974 139.006 72.7974C143.691 72.7974 144.126 72.5975 144.126 70.2993C144.126 68.001 143.691 67.8011 139.333 67.8011C135.302 67.8011 134.43 67.4014 133.994 65.6027C133.232 63.2045 134.321 61.5058 135.084 63.5043C135.411 64.2038 137.263 64.8033 139.333 64.8033C142.601 64.8033 143.037 64.5035 143.037 62.2053C143.037 59.7071 142.819 59.6072 138.679 60.2067C134.43 60.8063 134.321 60.7064 135.411 58.8078C136.282 57.3089 137.698 56.8093 140.858 56.8093C144.78 56.8093 145.216 56.5095 145.216 54.3111C145.216 51.9129 144.998 51.813 138.243 51.813C134.321 51.813 130.944 52.1127 130.726 52.5124Z" fill="#D48F3B"/>
<path d="M150.881 53.5117C147.395 56.2097 146.741 60.2067 149.356 62.605C150.555 63.7041 152.407 65.0032 153.387 65.6027C154.586 66.2023 155.13 67.2015 154.695 68.2008C154.15 69.4998 153.605 69.5998 151.208 68.6005C148.811 67.6012 148.158 67.7012 147.286 68.9003C145.761 71.1986 146.088 71.6982 150.663 72.8973C154.586 73.9965 155.457 73.8966 158.072 72.0979C162.539 69.0002 162.43 65.6027 157.854 62.1053C155.675 60.6064 153.932 58.508 153.932 57.5087C153.932 55.2104 155.675 55.3104 156.438 57.8085C157.309 60.8063 161.558 60.5065 161.558 57.4088C161.558 52.3126 155.348 50.1142 150.881 53.5117Z" fill="#D48F3B"/>
<path d="M162.647 54.9106C162.647 57.7086 162.974 58.0083 165.262 57.6086C167.768 57.109 167.877 57.4088 168.313 63.7041C168.64 67.3014 168.422 70.7989 167.986 71.3984C166.679 72.8973 167.877 73.7966 171.036 73.7966C173.433 73.7966 173.542 73.4969 173.542 65.3029C173.542 57.0091 173.651 56.8092 176.157 56.8092C178.554 56.8092 180.733 53.7115 179.207 52.4125C178.881 52.1127 175.067 51.8129 170.601 51.8129H162.647V54.9106Z" fill="#D48F3B"/>
</svg>
